# xmcd
#
# Track frame offsets:
#	150
#	16595
#	31976
#	44969
#	63873
#	71669
#	84167
#	101010
#	117108
#	132342
#	144511
#	155587
#
# Disc length: 2448 seconds
#
# Revision: 0
# Processed by: cddbd v1.5.1PL0 Copyright (c) Steve Scherf et al.
# Submitted via: EasyCDDAExtractor 8.2.1.1
#
DISCID=9d098e0c
DTITLE=Mark Wilson/Mes Amigo - Twilight
DYEAR=2001
DGENRE=Blues
TTITLE0=Rainbow
TTITLE1=Deep Horizon
TTITLE2=Tremble
TTITLE3=Glow
TTITLE4=Limbo
TTITLE5=Alive
TTITLE6=Twilight
TTITLE7=Worthless
TTITLE8=Perpetual Sunrise
TTITLE9=Touch
TTITLE10=Durisdeer Delight
TTITLE11=Karma
EXTD=
EXTT0=
EXTT1=
EXTT2=
EXTT3=
EXTT4=
EXTT5=
EXTT6=
EXTT7=
EXTT8=
EXTT9=
EXTT10=
EXTT11=
PLAYORDER=
